<svg xmlns="http://www.w3.org/2000/svg" viewBox="0 0 32.13 32.13"><defs><style>.a{fill:#f04e23;stroke:#fff;stroke-miterlimit:10;}.b{fill:#fff;}</style></defs><circle class="a" cx="16.07" cy="16.07" r="15.57"/><path class="b" d="M24.23,13.85,20.9,10.52V12H19.82a5.65,5.65,0,0,0-1.87.32v-.86H19.4L16.07,8.1l-3.34,3.33h1.46v4.08a5.76,5.76,0,0,0-1.88-.32H11.24V13.74L7.9,17.07l3.34,3.33V19h1.07a1.86,1.86,0,0,1,1.74,1.18,2.67,2.67,0,0,0-.67,1.77A2.69,2.69,0,1,0,18,20V17.61a1.88,1.88,0,0,1,1.87-1.88H20.9v1.45Zm-4.41,1.34a2.41,2.41,0,0,0-2.41,2.42v2.61l.09.08a2.17,2.17,0,0,1,.71,1.6,2.15,2.15,0,1,1-3.66-1.52l.11-.11,0-.16a2.42,2.42,0,0,0-2.31-1.7H10.7v.7l-2-2,2-2v.7h1.61a5.14,5.14,0,0,1,2,.42l.37.17V10.9H14l2-2,2,2h-.69v2.2l.37-.17a5.14,5.14,0,0,1,2-.42h1.62v-.7l2,2-2,2v-.69Z"/><path class="b" d="M16.07,20.56a1.34,1.34,0,1,0,1.34,1.34A1.35,1.35,0,0,0,16.07,20.56Zm0,2.15a.81.81,0,1,1,.8-.81A.81.81,0,0,1,16.07,22.71Z"/><rect class="b" x="15.8" y="19.49" width="0.54" height="0.54"/><rect class="b" x="15.8" y="18.41" width="0.54" height="0.54"/><rect class="b" x="15.8" y="17.34" width="0.54" height="0.54"/><rect class="b" x="15.8" y="16.26" width="0.54" height="0.54"/><rect class="b" x="15.8" y="15.19" width="0.54" height="0.54"/><rect class="b" x="15.8" y="14.12" width="0.54" height="0.54"/><rect class="b" x="15.8" y="13.04" width="0.54" height="0.54"/><rect class="b" x="15.8" y="11.97" width="0.54" height="0.54"/><rect class="b" x="15.8" y="10.9" width="0.54" height="0.54"/><rect class="b" x="15.8" y="9.82" width="0.54" height="0.54"/></svg>