<svg xmlns="http://www.w3.org/2000/svg" viewBox="0 0 32.13 32.13"><defs><style>.a{fill:#e210d8;stroke:#fff;stroke-miterlimit:10;}.b{fill:#fff;}</style></defs><circle class="a" cx="16.07" cy="16.07" r="15.57"/><path class="b" d="M23.36,9.26H8.78a.23.23,0,0,0-.24.24V22.64a.24.24,0,0,0,.24.24H23.36a.24.24,0,0,0,.24-.24V9.5A.24.24,0,0,0,23.36,9.26ZM23.12,22.4H9V9.74h8.89v1.44H9.74a.24.24,0,0,0,0,.48H22.4a.24.24,0,1,0,0-.48h-4V9.74h4.73Z"/><circle class="b" cx="20.76" cy="10.46" r="0.24"/><circle class="b" cx="19.45" cy="10.46" r="0.24"/><circle class="b" cx="22.08" cy="10.46" r="0.24"/><path class="b" d="M16.07,15.16a1.78,1.78,0,1,0,.81,3.36A.24.24,0,0,0,17,18.2a.25.25,0,0,0-.33-.1,1.31,1.31,0,0,1-.59.14,1.3,1.3,0,1,1,1.3-1.3,1.2,1.2,0,0,1-.15.59.25.25,0,0,0,.11.33.24.24,0,0,0,.32-.1,1.84,1.84,0,0,0,.2-.82A1.78,1.78,0,0,0,16.07,15.16Z"/><path class="b" d="M20,16.06H19a2.87,2.87,0,0,0-.24-.57l.72-.72a.24.24,0,0,0,.07-.17.28.28,0,0,0-.07-.17l-.91-.9a.23.23,0,0,0-.34,0l-.71.71A3.57,3.57,0,0,0,17,14V13a.24.24,0,0,0-.24-.24H15.43a.23.23,0,0,0-.24.24v1a3.57,3.57,0,0,0-.57.23l-.72-.71a.23.23,0,0,0-.34,0l-.91.9a.28.28,0,0,0-.07.17.24.24,0,0,0,.07.17l.72.72a2.87,2.87,0,0,0-.24.57h-1a.24.24,0,0,0-.24.24v1.28a.24.24,0,0,0,.24.24h1a2.87,2.87,0,0,0,.24.57l-.72.72a.24.24,0,0,0-.07.17.28.28,0,0,0,.07.17l.91.9a.23.23,0,0,0,.34,0l.72-.71a2.83,2.83,0,0,0,.57.23v1a.23.23,0,0,0,.24.24h1.28a.24.24,0,0,0,.24-.24v-1a2.83,2.83,0,0,0,.57-.23l.71.71a.23.23,0,0,0,.34,0l.91-.9a.28.28,0,0,0,.07-.17.24.24,0,0,0-.07-.17l-.72-.72a2.87,2.87,0,0,0,.24-.57h1a.24.24,0,0,0,.24-.24V16.3A.24.24,0,0,0,20,16.06Zm-.24,1.28h-.95a.25.25,0,0,0-.24.19,2.47,2.47,0,0,1-.32.77.24.24,0,0,0,0,.3l.68.68-.57.56-.67-.67a.24.24,0,0,0-.3,0,2.7,2.7,0,0,1-.78.33.23.23,0,0,0-.18.23v.95h-.8v-.95a.24.24,0,0,0-.19-.23,2.82,2.82,0,0,1-.78-.33.23.23,0,0,0-.29,0l-.68.67-.57-.56.68-.68a.24.24,0,0,0,0-.3,2.73,2.73,0,0,1-.32-.77.24.24,0,0,0-.23-.19h-1v-.8h1a.24.24,0,0,0,.23-.19,2.73,2.73,0,0,1,.32-.77.24.24,0,0,0,0-.3l-.68-.68.57-.56.68.67a.23.23,0,0,0,.29,0,2.52,2.52,0,0,1,.78-.32.26.26,0,0,0,.19-.24v-.95h.8v.95a.25.25,0,0,0,.18.24,2.43,2.43,0,0,1,.78.32.24.24,0,0,0,.3,0L18.4,14l.57.56-.68.68a.24.24,0,0,0,0,.3,2.47,2.47,0,0,1,.32.77.25.25,0,0,0,.24.19h.95v.8Z"/></svg>